<svg xmlns="http://www.w3.org/2000/svg" xmlns:xlink="http://www.w3.org/1999/xlink" width="50" zoomAndPan="magnify" viewBox="0 0 37.5 37.499999" height="50" preserveAspectRatio="xMidYMid meet" version="1.0"><defs><clipPath id="ac8463a5b6"><path d="M 0 10 L 34 10 L 34 33 L 0 33 Z M 0 10 " clip-rule="nonzero"/></clipPath><clipPath id="30f83e4912"><path d="M 3.523438 36.179688 L -0.550781 15.355469 L 31.480469 9.09375 L 35.554688 29.914062 Z M 3.523438 36.179688 " clip-rule="nonzero"/></clipPath><clipPath id="267683c1ee"><path d="M 3.523438 36.179688 L -0.550781 15.355469 L 31.480469 9.09375 L 35.554688 29.914062 Z M 3.523438 36.179688 " clip-rule="nonzero"/></clipPath><clipPath id="ecc986f222"><path d="M 3.523438 36.179688 L -0.550781 15.355469 L 31.480469 9.09375 L 35.554688 29.914062 Z M 3.523438 36.179688 " clip-rule="nonzero"/></clipPath><clipPath id="4ec1a8aba8"><path d="M 3.527344 36.175781 L -0.546875 15.351562 L 31.5 9.082031 L 35.570312 29.910156 Z M 3.527344 36.175781 " clip-rule="nonzero"/></clipPath><clipPath id="5251f435dc"><path d="M 3.527344 36.175781 L -0.546875 15.355469 L 31.476562 9.089844 L 35.550781 29.914062 Z M 3.527344 36.175781 " clip-rule="nonzero"/></clipPath><clipPath id="1dbf0b1be8"><path d="M 4 10 L 36 10 L 36 32 L 4 32 Z M 4 10 " clip-rule="nonzero"/></clipPath><clipPath id="8f9fba66e7"><path d="M 1.898438 28.722656 L 4.789062 7.707031 L 37.125 12.152344 L 34.234375 33.171875 Z M 1.898438 28.722656 " clip-rule="nonzero"/></clipPath><clipPath id="fee362add8"><path d="M 1.898438 28.722656 L 4.789062 7.707031 L 37.125 12.152344 L 34.234375 33.171875 Z M 1.898438 28.722656 " clip-rule="nonzero"/></clipPath><clipPath id="0918de5953"><path d="M 1.898438 28.722656 L 4.789062 7.707031 L 37.125 12.152344 L 34.234375 33.171875 Z M 1.898438 28.722656 " clip-rule="nonzero"/></clipPath><clipPath id="2851da7b12"><path d="M 1.902344 28.722656 L 4.796875 7.699219 L 37.140625 12.148438 L 34.25 33.171875 Z M 1.902344 28.722656 " clip-rule="nonzero"/></clipPath><clipPath id="a285da64d5"><path d="M 1.902344 28.722656 L 4.792969 7.703125 L 37.121094 12.152344 L 34.230469 33.167969 Z M 1.902344 28.722656 " clip-rule="nonzero"/></clipPath><clipPath id="a3ad1fff39"><path d="M 9 5 L 37 5 L 37 32 L 9 32 Z M 9 5 " clip-rule="nonzero"/></clipPath><clipPath id="01804dd244"><path d="M 1.21875 18.449219 L 12.300781 0.355469 L 40.132812 17.402344 L 29.054688 35.496094 Z M 1.21875 18.449219 " clip-rule="nonzero"/></clipPath><clipPath id="d7fe177670"><path d="M 1.21875 18.449219 L 12.300781 0.355469 L 40.132812 17.402344 L 29.054688 35.496094 Z M 1.21875 18.449219 " clip-rule="nonzero"/></clipPath><clipPath id="f06e4aa11c"><path d="M 1.21875 18.449219 L 12.300781 0.355469 L 40.132812 17.402344 L 29.054688 35.496094 Z M 1.21875 18.449219 " clip-rule="nonzero"/></clipPath><clipPath id="4f4a439714"><path d="M 1.222656 18.449219 L 12.308594 0.355469 L 40.152344 17.40625 L 29.066406 35.503906 Z M 1.222656 18.449219 " clip-rule="nonzero"/></clipPath><clipPath id="adfd911fec"><path d="M 1.222656 18.449219 L 12.304688 0.355469 L 40.132812 17.398438 L 29.050781 35.492188 Z M 1.222656 18.449219 " clip-rule="nonzero"/></clipPath></defs><g clip-path="url(#ac8463a5b6)"><g clip-path="url(#30f83e4912)"><g clip-path="url(#267683c1ee)"><g clip-path="url(#ecc986f222)"><g clip-path="url(#4ec1a8aba8)"><g clip-path="url(#5251f435dc)"><path fill="#754237" d="M 20.867188 11.167969 C 26.726562 10.019531 32.394531 13.777344 33.523438 19.554688 C 34.671875 25.421875 30.804688 30.074219 25.300781 31.808594 C 19.285156 33.707031 12.996094 32.03125 7.992188 28.496094 C 5.929688 27.039062 4.070312 25.300781 2.433594 23.386719 C 1.878906 22.734375 1.25 21.375 0.539062 20.90625 C 9.441406 26.804688 13.070312 12.691406 20.867188 11.167969 " fill-opacity="1" fill-rule="nonzero"/></g></g></g></g></g></g><g clip-path="url(#1dbf0b1be8)"><g clip-path="url(#8f9fba66e7)"><g clip-path="url(#fee362add8)"><g clip-path="url(#0918de5953)"><g clip-path="url(#2851da7b12)"><g clip-path="url(#a285da64d5)"><path fill="#eeb58f" d="M 26.410156 10.679688 C 32.324219 11.492188 36.46875 16.878906 35.667969 22.714844 C 34.851562 28.636719 29.6875 31.785156 23.917969 31.644531 C 17.613281 31.488281 12.207031 27.871094 8.617188 22.902344 C 7.136719 20.855469 5.9375 18.609375 5.011719 16.269531 C 4.699219 15.472656 4.542969 13.980469 4.023438 13.308594 C 10.53125 21.773438 18.539062 9.59375 26.410156 10.679688 " fill-opacity="1" fill-rule="nonzero"/></g></g></g></g></g></g><g clip-path="url(#a3ad1fff39)"><g clip-path="url(#01804dd244)"><g clip-path="url(#d7fe177670)"><g clip-path="url(#f06e4aa11c)"><g clip-path="url(#4f4a439714)"><g clip-path="url(#adfd911fec)"><path fill="#f2d3b6" d="M 30.914062 11.753906 C 36.003906 14.871094 37.636719 21.46875 34.5625 26.492188 C 31.4375 31.589844 25.445312 32.402344 20.21875 29.957031 C 14.503906 27.285156 11.003906 21.800781 9.707031 15.8125 C 9.175781 13.34375 8.980469 10.804688 9.070312 8.289062 C 9.097656 7.433594 9.554688 6.003906 9.351562 5.179688 C 11.917969 15.546875 24.136719 7.601562 30.914062 11.753906 " fill-opacity="1" fill-rule="nonzero"/></g></g></g></g></g></g></svg>