<svg xmlns="http://www.w3.org/2000/svg" xmlns:xlink="http://www.w3.org/1999/xlink" width="150" zoomAndPan="magnify" viewBox="0 0 112.5 89.999999" height="120" preserveAspectRatio="xMidYMid meet" version="1.0"><defs><g/><clipPath id="8c4b780e66"><path d="M 0 14 L 58 14 L 58 53 L 0 53 Z M 0 14 " clip-rule="nonzero"/></clipPath><clipPath id="7d3387b947"><path d="M 5.941406 58.3125 L -1.113281 22.246094 L 53.355469 11.589844 L 60.410156 47.65625 Z M 5.941406 58.3125 " clip-rule="nonzero"/></clipPath><clipPath id="305fb0ea98"><path d="M 5.941406 58.3125 L -1.113281 22.246094 L 53.355469 11.589844 L 60.410156 47.65625 Z M 5.941406 58.3125 " clip-rule="nonzero"/></clipPath><clipPath id="17d12a1e9a"><path d="M 5.941406 58.3125 L -1.113281 22.246094 L 53.355469 11.589844 L 60.410156 47.65625 Z M 5.941406 58.3125 " clip-rule="nonzero"/></clipPath><clipPath id="8cbcc4e619"><path d="M 5.953125 58.308594 L -1.105469 22.234375 L 53.382812 11.574219 L 60.441406 47.652344 Z M 5.953125 58.308594 " clip-rule="nonzero"/></clipPath><clipPath id="dd458b8035"><path d="M 5.953125 58.308594 L -1.101562 22.238281 L 53.347656 11.589844 L 60.402344 47.660156 Z M 5.953125 58.308594 " clip-rule="nonzero"/></clipPath><clipPath id="cb96525a14"><path d="M 6 14 L 61 14 L 61 51 L 6 51 Z M 6 14 " clip-rule="nonzero"/></clipPath><clipPath id="65512d7661"><path d="M 3.1875 45.664062 L 8.195312 9.253906 L 63.175781 16.816406 L 58.171875 53.222656 Z M 3.1875 45.664062 " clip-rule="nonzero"/></clipPath><clipPath id="014290f3a4"><path d="M 3.1875 45.664062 L 8.195312 9.253906 L 63.175781 16.816406 L 58.171875 53.222656 Z M 3.1875 45.664062 " clip-rule="nonzero"/></clipPath><clipPath id="8154dcc9a3"><path d="M 3.1875 45.664062 L 8.195312 9.253906 L 63.175781 16.816406 L 58.171875 53.222656 Z M 3.1875 45.664062 " clip-rule="nonzero"/></clipPath><clipPath id="28bd0ec269"><path d="M 3.195312 45.664062 L 8.203125 9.246094 L 63.207031 16.808594 L 58.199219 53.226562 Z M 3.195312 45.664062 " clip-rule="nonzero"/></clipPath><clipPath id="c11b66e998"><path d="M 3.195312 45.664062 L 8.203125 9.253906 L 63.171875 16.8125 L 58.164062 53.222656 Z M 3.195312 45.664062 " clip-rule="nonzero"/></clipPath><clipPath id="336b213128"><path d="M 15 5 L 62 5 L 62 50 L 15 50 Z M 15 5 " clip-rule="nonzero"/></clipPath><clipPath id="41257ceed6"><path d="M 2.035156 28.226562 L 21.230469 -3.113281 L 68.558594 25.875 L 49.363281 57.210938 Z M 2.035156 28.226562 " clip-rule="nonzero"/></clipPath><clipPath id="5d8ec089e0"><path d="M 2.035156 28.226562 L 21.230469 -3.113281 L 68.558594 25.875 L 49.363281 57.210938 Z M 2.035156 28.226562 " clip-rule="nonzero"/></clipPath><clipPath id="552d316305"><path d="M 2.035156 28.226562 L 21.230469 -3.113281 L 68.558594 25.875 L 49.363281 57.210938 Z M 2.035156 28.226562 " clip-rule="nonzero"/></clipPath><clipPath id="9ebd2d2c74"><path d="M 2.042969 28.230469 L 21.242188 -3.117188 L 68.589844 25.882812 L 49.390625 57.230469 Z M 2.042969 28.230469 " clip-rule="nonzero"/></clipPath><clipPath id="48f571e81c"><path d="M 2.042969 28.230469 L 21.238281 -3.113281 L 68.554688 25.867188 L 49.359375 57.207031 Z M 2.042969 28.230469 " clip-rule="nonzero"/></clipPath></defs><g clip-path="url(#8c4b780e66)"><g clip-path="url(#7d3387b947)"><g clip-path="url(#305fb0ea98)"><g clip-path="url(#17d12a1e9a)"><g clip-path="url(#8cbcc4e619)"><g clip-path="url(#dd458b8035)"><path fill="#754237" d="M 35.308594 15.117188 C 45.273438 13.167969 54.9375 19.707031 56.894531 29.71875 C 58.882812 39.882812 52.328125 47.90625 42.972656 50.878906 C 32.75 54.125 22.042969 51.191406 13.503906 45.039062 C 9.984375 42.503906 6.808594 39.484375 4.015625 36.160156 C 3.066406 35.03125 1.984375 32.671875 0.777344 31.855469 C 15.957031 42.121094 22.050781 17.710938 35.308594 15.117188 " fill-opacity="1" fill-rule="nonzero"/></g></g></g></g></g></g><g clip-path="url(#cb96525a14)"><g clip-path="url(#65512d7661)"><g clip-path="url(#014290f3a4)"><g clip-path="url(#8154dcc9a3)"><g clip-path="url(#28bd0ec269)"><g clip-path="url(#c11b66e998)"><path fill="#eeb58f" d="M 44.960938 14.308594 C 55.015625 15.691406 62.042969 25.003906 60.652344 35.109375 C 59.242188 45.371094 50.445312 50.84375 40.628906 50.625 C 29.90625 50.386719 20.726562 44.140625 14.640625 35.554688 C 12.132812 32.015625 10.105469 28.128906 8.539062 24.082031 C 8.003906 22.703125 7.746094 20.125 6.871094 18.960938 C 17.90625 33.589844 31.574219 12.46875 44.960938 14.308594 " fill-opacity="1" fill-rule="nonzero"/></g></g></g></g></g></g><g clip-path="url(#336b213128)"><g clip-path="url(#41257ceed6)"><g clip-path="url(#5d8ec089e0)"><g clip-path="url(#552d316305)"><g clip-path="url(#9ebd2d2c74)"><g clip-path="url(#48f571e81c)"><path fill="#f2d3b6" d="M 52.878906 16.265625 C 61.535156 21.570312 64.234375 32.917969 58.90625 41.617188 C 53.496094 50.449219 43.242188 51.929688 34.339844 47.792969 C 24.613281 43.273438 18.707031 33.867188 16.582031 23.5625 C 15.703125 19.316406 15.40625 14.941406 15.59375 10.605469 C 15.660156 9.128906 16.457031 6.664062 16.121094 5.246094 C 20.359375 23.070312 41.355469 9.210938 52.878906 16.265625 " fill-opacity="1" fill-rule="nonzero"/></g></g></g></g></g></g><g fill="#eeb58f" fill-opacity="1"><g transform="translate(68.448953, 43.435334)"><g><path d="M 0.976562 -8.714844 C 0.976562 -6.285156 2.027344 -4.058594 3.53125 -2.453125 C 5.058594 -0.851562 7.261719 0.125 9.640625 0.125 C 13.722656 0.125 16.929688 -2.578125 17.929688 -6.5625 L 15.453125 -6.5625 C 14.550781 -3.90625 12.296875 -2.378906 9.640625 -2.378906 C 7.964844 -2.378906 6.285156 -3.082031 5.183594 -4.230469 C 4.082031 -5.382812 3.429688 -6.960938 3.429688 -8.714844 C 3.429688 -10.519531 4.105469 -12.070312 5.207031 -13.222656 C 6.3125 -14.375 7.964844 -15.175781 9.640625 -15.175781 C 12.222656 -15.175781 14.375 -13.773438 15.300781 -11.144531 L 17.804688 -11.144531 C 16.804688 -15.101562 13.648438 -17.679688 9.640625 -17.679688 C 7.261719 -17.679688 4.984375 -16.578125 3.457031 -15 C 1.953125 -13.398438 0.976562 -11.195312 0.976562 -8.714844 Z M 0.976562 -8.714844 "/></g></g></g><g fill="#eeb58f" fill-opacity="1"><g transform="translate(87.329832, 43.435334)"><g><path d="M 0.976562 -8.714844 C 0.976562 -6.285156 2.027344 -4.058594 3.53125 -2.453125 C 5.058594 -0.851562 7.261719 0.125 9.640625 0.125 C 13.722656 0.125 16.929688 -2.578125 17.929688 -6.5625 L 15.453125 -6.5625 C 14.550781 -3.90625 12.296875 -2.378906 9.640625 -2.378906 C 7.964844 -2.378906 6.285156 -3.082031 5.183594 -4.230469 C 4.082031 -5.382812 3.429688 -6.960938 3.429688 -8.714844 C 3.429688 -10.519531 4.105469 -12.070312 5.207031 -13.222656 C 6.3125 -14.375 7.964844 -15.175781 9.640625 -15.175781 C 12.222656 -15.175781 14.375 -13.773438 15.300781 -11.144531 L 17.804688 -11.144531 C 16.804688 -15.101562 13.648438 -17.679688 9.640625 -17.679688 C 7.261719 -17.679688 4.984375 -16.578125 3.457031 -15 C 1.953125 -13.398438 0.976562 -11.195312 0.976562 -8.714844 Z M 0.976562 -8.714844 "/></g></g></g><g fill="#f2d3b6" fill-opacity="1"><g transform="translate(10.498204, 70.645243)"><g><path d="M 0.546875 -4.871094 C 0.546875 -3.511719 1.132812 -2.265625 1.972656 -1.371094 C 2.828125 -0.476562 4.058594 0.0703125 5.390625 0.0703125 C 7.671875 0.0703125 9.460938 -1.441406 10.023438 -3.667969 L 8.636719 -3.667969 C 8.132812 -2.183594 6.871094 -1.328125 5.390625 -1.328125 C 4.449219 -1.328125 3.511719 -1.722656 2.898438 -2.367188 C 2.28125 -3.007812 1.917969 -3.890625 1.917969 -4.871094 C 1.917969 -5.878906 2.296875 -6.746094 2.910156 -7.390625 C 3.527344 -8.035156 4.449219 -8.480469 5.390625 -8.480469 C 6.832031 -8.480469 8.035156 -7.699219 8.550781 -6.230469 L 9.953125 -6.230469 C 9.390625 -8.441406 7.628906 -9.882812 5.390625 -9.882812 C 4.058594 -9.882812 2.785156 -9.265625 1.929688 -8.382812 C 1.089844 -7.488281 0.546875 -6.257812 0.546875 -4.871094 Z M 0.546875 -4.871094 "/></g></g></g><g fill="#f2d3b6" fill-opacity="1"><g transform="translate(21.051217, 70.645243)"><g><path d="M 4.773438 -4.96875 L 3.121094 -4.96875 L 3.121094 -4.296875 L 6.691406 0 L 8.523438 0 L 5.429688 -3.679688 C 7.109375 -3.976562 7.964844 -5.289062 7.964844 -6.675781 C 7.964844 -8.230469 6.902344 -9.921875 4.773438 -9.921875 L 1.203125 -9.921875 L 1.203125 0 L 2.601562 0 L 2.601562 -8.496094 L 4.773438 -8.496094 C 5.960938 -8.496094 6.550781 -7.515625 6.550781 -6.675781 C 6.550781 -5.824219 5.960938 -4.96875 4.773438 -4.96875 Z M 4.773438 -4.96875 "/></g></g></g><g fill="#f2d3b6" fill-opacity="1"><g transform="translate(29.39286, 70.645243)"><g><path d="M 0.488281 -4.898438 C 0.488281 -2.070312 2.742188 0.183594 5.570312 0.183594 C 8.398438 0.183594 10.664062 -2.070312 10.664062 -4.898438 C 10.664062 -7.726562 8.398438 -9.992188 5.570312 -9.992188 C 2.742188 -9.992188 0.488281 -7.726562 0.488281 -4.898438 Z M 1.945312 -4.898438 C 1.945312 -6.914062 3.554688 -8.539062 5.570312 -8.539062 C 7.585938 -8.539062 9.210938 -6.914062 9.210938 -4.898438 C 9.210938 -2.882812 7.585938 -1.273438 5.570312 -1.273438 C 3.554688 -1.273438 1.945312 -2.882812 1.945312 -4.898438 Z M 1.945312 -4.898438 "/></g></g></g><g fill="#f2d3b6" fill-opacity="1"><g transform="translate(40.645676, 70.645243)"><g><path d="M 1.203125 -9.796875 L 1.203125 0 L 2.617188 0 L 2.617188 -6.84375 L 7.347656 0 L 8.46875 0 L 8.46875 -9.796875 L 7.070312 -9.796875 L 7.070312 -2.898438 L 2.296875 -9.796875 Z M 1.203125 -9.796875 "/></g></g></g><g fill="#f2d3b6" fill-opacity="1"><g transform="translate(50.316934, 70.645243)"><g><path d="M 0.488281 -4.898438 C 0.488281 -2.070312 2.742188 0.183594 5.570312 0.183594 C 8.398438 0.183594 10.664062 -2.070312 10.664062 -4.898438 C 10.664062 -7.726562 8.398438 -9.992188 5.570312 -9.992188 C 2.742188 -9.992188 0.488281 -7.726562 0.488281 -4.898438 Z M 1.945312 -4.898438 C 1.945312 -6.914062 3.554688 -8.539062 5.570312 -8.539062 C 7.585938 -8.539062 9.210938 -6.914062 9.210938 -4.898438 C 9.210938 -2.882812 7.585938 -1.273438 5.570312 -1.273438 C 3.554688 -1.273438 1.945312 -2.882812 1.945312 -4.898438 Z M 1.945312 -4.898438 "/></g></g></g><g fill="#f2d3b6" fill-opacity="1"><g transform="translate(61.56975, 70.645243)"><g><path d="M 8.71875 -6.355469 L 10.257812 -6.355469 C 9.726562 -9.015625 7.417969 -9.953125 5.5 -9.953125 C 2.742188 -9.953125 0.585938 -7.839844 0.585938 -4.886719 C 0.585938 -1.945312 2.703125 0.167969 5.5 0.167969 C 7.320312 0.167969 9.363281 -1.160156 10.050781 -3.066406 L 10.050781 -3.050781 C 10.191406 -3.386719 10.257812 -3.945312 10.328125 -4.785156 L 4.941406 -4.785156 L 4.941406 -3.34375 L 8.636719 -3.34375 C 8.046875 -1.890625 6.734375 -1.21875 5.5 -1.21875 C 3.542969 -1.21875 2.03125 -2.769531 2.03125 -4.886719 C 2.03125 -6.984375 3.542969 -8.511719 5.5 -8.511719 C 6.773438 -8.511719 8.3125 -7.964844 8.71875 -6.355469 Z M 8.71875 -6.355469 "/></g></g></g><g fill="#f2d3b6" fill-opacity="1"><g transform="translate(72.640614, 70.645243)"><g><path d="M 4.773438 -4.96875 L 3.121094 -4.96875 L 3.121094 -4.296875 L 6.691406 0 L 8.523438 0 L 5.429688 -3.679688 C 7.109375 -3.976562 7.964844 -5.289062 7.964844 -6.675781 C 7.964844 -8.230469 6.902344 -9.921875 4.773438 -9.921875 L 1.203125 -9.921875 L 1.203125 0 L 2.601562 0 L 2.601562 -8.496094 L 4.773438 -8.496094 C 5.960938 -8.496094 6.550781 -7.515625 6.550781 -6.675781 C 6.550781 -5.824219 5.960938 -4.96875 4.773438 -4.96875 Z M 4.773438 -4.96875 "/></g></g></g><g fill="#f2d3b6" fill-opacity="1"><g transform="translate(80.982256, 70.645243)"><g><path d="M 2.421875 -2.476562 L 6.398438 -2.476562 L 7.335938 0 L 8.847656 0 L 4.914062 -9.921875 L 3.878906 -9.921875 L -0.0546875 0 L 1.46875 0 Z M 5.878906 -3.808594 L 2.9375 -3.808594 L 4.410156 -7.671875 Z M 5.878906 -3.808594 "/></g></g></g><g fill="#f2d3b6" fill-opacity="1"><g transform="translate(89.855748, 70.645243)"><g><path d="M 1.203125 0 L 2.617188 0 L 2.617188 -6.902344 L 5.179688 -3.09375 L 5.976562 -3.09375 L 8.539062 -6.902344 L 8.539062 0 L 9.9375 0 L 9.9375 -9.796875 L 8.816406 -9.796875 L 5.585938 -5.039062 L 2.351562 -9.796875 L 1.203125 -9.796875 Z M 1.203125 0 "/></g></g></g><g fill="#f2d3b6" fill-opacity="1"><g transform="translate(100.982602, 70.645243)"><g><path d="M 2.421875 -2.476562 L 6.398438 -2.476562 L 7.335938 0 L 8.847656 0 L 4.914062 -9.921875 L 3.878906 -9.921875 L -0.0546875 0 L 1.46875 0 Z M 5.878906 -3.808594 L 2.9375 -3.808594 L 4.410156 -7.671875 Z M 5.878906 -3.808594 "/></g></g></g><g fill="#f2d3b6" fill-opacity="1"><g transform="translate(41.1848, 84.487226)"><g><path d="M 0.304688 -2.734375 C 0.304688 -1.972656 0.636719 -1.273438 1.109375 -0.769531 C 1.585938 -0.265625 2.277344 0.0390625 3.023438 0.0390625 C 4.304688 0.0390625 5.3125 -0.808594 5.625 -2.058594 L 4.847656 -2.058594 C 4.566406 -1.226562 3.859375 -0.746094 3.023438 -0.746094 C 2.5 -0.746094 1.972656 -0.964844 1.625 -1.328125 C 1.28125 -1.6875 1.078125 -2.183594 1.078125 -2.734375 C 1.078125 -3.300781 1.289062 -3.789062 1.632812 -4.148438 C 1.980469 -4.511719 2.5 -4.761719 3.023438 -4.761719 C 3.835938 -4.761719 4.511719 -4.320312 4.800781 -3.496094 L 5.585938 -3.496094 C 5.273438 -4.738281 4.28125 -5.546875 3.023438 -5.546875 C 2.277344 -5.546875 1.5625 -5.203125 1.085938 -4.707031 C 0.613281 -4.203125 0.304688 -3.511719 0.304688 -2.734375 Z M 0.304688 -2.734375 "/></g></g></g><g fill="#f2d3b6" fill-opacity="1"><g transform="translate(47.109669, 84.487226)"><g><path d="M 1.359375 -1.390625 L 3.589844 -1.390625 L 4.117188 0 L 4.964844 0 L 2.757812 -5.570312 L 2.175781 -5.570312 L -0.03125 0 L 0.824219 0 Z M 3.300781 -2.136719 L 1.648438 -2.136719 L 2.476562 -4.304688 Z M 3.300781 -2.136719 "/></g></g></g><g fill="#f2d3b6" fill-opacity="1"><g transform="translate(52.091583, 84.487226)"><g><path d="M 2.6875 -5.5 L 0.675781 -5.5 L 0.675781 0 L 1.476562 0 L 1.476562 -1.832031 L 2.6875 -1.832031 C 3.875 -1.832031 4.472656 -2.742188 4.472656 -3.660156 C 4.472656 -4.582031 3.875 -5.5 2.6875 -5.5 Z M 2.6875 -2.617188 L 1.476562 -2.617188 L 1.476562 -4.699219 L 2.6875 -4.699219 C 3.355469 -4.699219 3.683594 -4.179688 3.683594 -3.652344 C 3.683594 -3.136719 3.355469 -2.617188 2.6875 -2.617188 Z M 2.6875 -2.617188 "/></g></g></g><g fill="#f2d3b6" fill-opacity="1"><g transform="translate(56.759186, 84.487226)"><g><path d="M 2.492188 -4.816406 L 3.511719 -4.816406 L 3.511719 -5.546875 L 0.675781 -5.546875 L 0.675781 -4.816406 L 1.699219 -4.816406 L 1.699219 -0.738281 L 0.675781 -0.738281 L 0.675781 0 L 3.511719 0 L 3.511719 -0.738281 L 2.492188 -0.738281 Z M 2.492188 -4.816406 "/></g></g></g><g fill="#f2d3b6" fill-opacity="1"><g transform="translate(60.939599, 84.487226)"><g><path d="M 4.054688 -0.792969 L 1.46875 -0.792969 L 1.46875 -5.5 L 0.675781 -5.5 L 0.675781 0 L 4.054688 0 Z M 4.054688 -0.792969 "/></g></g></g><g fill="#f2d3b6" fill-opacity="1"><g transform="translate(65.033573, 84.487226)"><g><path d="M 1.359375 -1.390625 L 3.589844 -1.390625 L 4.117188 0 L 4.964844 0 L 2.757812 -5.570312 L 2.175781 -5.570312 L -0.03125 0 L 0.824219 0 Z M 3.300781 -2.136719 L 1.648438 -2.136719 L 2.476562 -4.304688 Z M 3.300781 -2.136719 "/></g></g></g><g fill="#f2d3b6" fill-opacity="1"><g transform="translate(70.015487, 84.487226)"><g><path d="M 2.679688 -2.789062 L 1.753906 -2.789062 L 1.753906 -2.414062 L 3.757812 0 L 4.785156 0 L 3.050781 -2.066406 C 3.992188 -2.230469 4.472656 -2.96875 4.472656 -3.75 C 4.472656 -4.621094 3.875 -5.570312 2.679688 -5.570312 L 0.675781 -5.570312 L 0.675781 0 L 1.460938 0 L 1.460938 -4.769531 L 2.679688 -4.769531 C 3.347656 -4.769531 3.675781 -4.21875 3.675781 -3.75 C 3.675781 -3.269531 3.347656 -2.789062 2.679688 -2.789062 Z M 2.679688 -2.789062 "/></g></g></g></svg>